<svg width="522" height="97" viewBox="0 0 522 97" fill="none" xmlns="http://www.w3.org/2000/svg">
<path d="M14 19C27.6186 19 41.0968 19.3871 54 21C57.2074 21.4009 58.1057 33.4879 59.2222 36C61.2854 40.642 60 47.899 60 53" stroke="black" stroke-width="3" stroke-linecap="round"/>
<path d="M29 47C27.8864 57.023 30 65.9061 30 76" stroke="black" stroke-width="3" stroke-linecap="round"/>
<path d="M2 76C26.5695 76 50.5377 77 75 77" stroke="black" stroke-width="3" stroke-linecap="round"/>
<path d="M119 12C119 17.6747 111.798 28.1881 108.444 32.5C106.388 35.1444 105.391 38.5115 103.222 41.2222C102.056 42.6798 100.234 49.916 103 43" stroke="black" stroke-width="3" stroke-linecap="round"/>
<path d="M119 16C119.446 20.0149 125.688 27.7075 129 29.7778C133.877 32.826 136.643 36.2861 139 41" stroke="black" stroke-width="3" stroke-linecap="round"/>
<path d="M154 30H181" stroke="black" stroke-width="3" stroke-linecap="round"/>
<path d="M177 3C177 12.3385 178 21.9772 178 31C178 38.9908 180 47.1326 180 55" stroke="black" stroke-width="3" stroke-linecap="round"/>
<path d="M164 66C163.643 63.1462 155.149 64 153 64C147.788 64 144.531 63.7754 140.5 67C137.955 69.0358 138.504 77.5224 139.056 80.5555C140.032 85.9261 142.789 91.4619 148 93.7777C155.289 97.0172 170 92.2698 170 83.5555C170 79.2842 170.169 75.3513 168 71.5555C166.594 69.0944 163.004 67.0081 162 65" stroke="black" stroke-width="3" stroke-linecap="round"/>
<path d="M210 12C215.935 12 221.719 14 227.5 14C230.977 14 239 14.0606 239 18.5C239 27.9141 236 36.8075 236 46" stroke="black" stroke-width="3" stroke-linecap="round"/>
<path d="M254 21C262.003 21 269.895 22 277.889 22C279.581 22 281.932 21.1367 281 23" stroke="black" stroke-width="3" stroke-linecap="round"/>
<path d="M258 37H278" stroke="black" stroke-width="3" stroke-linecap="round"/>
<path d="M279 4C279 19.6396 281 36.6673 281 52" stroke="black" stroke-width="3" stroke-linecap="round"/>
<path d="M265 65C264.401 60.209 242.005 64.351 239.556 67.5C237.118 70.6342 237.727 77.6368 239.222 81C241.937 87.1083 246.604 92.4121 253.5 93.9444C265.829 96.6843 272 89.8999 272 78C272 68.427 270.245 61.1888 259 64" stroke="black" stroke-width="3" stroke-linecap="round"/>
<path d="M360 16C359.366 21.7021 360 26.9192 360 32.5C360 39.3048 366.778 40.4726 370 44.5C372.139 47.1742 381.661 46 385 46C390.344 46 406.344 47 401 47" stroke="black" stroke-width="3" stroke-linecap="round"/>
<path d="M383 49V80" stroke="black" stroke-width="3" stroke-linecap="round"/>
<path d="M344 79C362.122 79 380.232 81 398.444 81C406.396 81 414.541 80 422 80" stroke="black" stroke-width="3" stroke-linecap="round"/>
<path d="M464 12C463.572 15.8502 460.501 19.3739 458.222 22.2222C455.985 25.0193 455.404 29.495 453.222 32.2222C451.025 34.9688 450.609 39.5706 448.222 42.2222C447.176 43.3847 442.584 51.6243 445 48" stroke="black" stroke-width="3" stroke-linecap="round"/>
<path d="M464 13C464.579 18.2127 467.986 25.8399 470.556 30.6111C472.804 34.7873 476.849 43.9244 481 46" stroke="black" stroke-width="3" stroke-linecap="round"/>
<path d="M494 20H520" stroke="black" stroke-width="3" stroke-linecap="round"/>
<path d="M495 36C503.409 36 510.669 37 519 37" stroke="black" stroke-width="3" stroke-linecap="round"/>
<path d="M516 2C516 11.0958 517 21.3548 517 31C517 36.1724 518 41.0175 518 46C518 48.7115 521.17 57.4149 518 59" stroke="black" stroke-width="3" stroke-linecap="round"/>
<path d="M472 65C472 75.5636 474.974 86 487 86C497.656 86 509.137 88 520 88" stroke="black" stroke-width="3" stroke-linecap="round"/>
</svg>
