<svg width="281" height="105" viewBox="0 0 281 105" fill="none" xmlns="http://www.w3.org/2000/svg">
<path d="M2.12732 13.2408C10.5043 13.2408 18.6885 17.0953 27.1815 17.0953C32.4675 17.0953 38.3306 20.4366 35.8184 26.0891C33.9178 30.3656 34.0792 37.4489 33.0346 42.1495C31.8363 47.5421 31.5029 50.852 29.1088 55.6402" stroke="black" stroke-width="3" stroke-linecap="round"/>
<path d="M2.12732 35.0829C11.8042 35.0829 21.7643 36.3678 31.6784 36.3678" stroke="black" stroke-width="3" stroke-linecap="round"/>
<path d="M57.3751 35.0829H75.3627" stroke="black" stroke-width="3" stroke-linecap="round"/>
<path d="M75.3627 8.1015C75.3627 17.5806 74.0779 26.2825 74.0779 35.7254C74.0779 44.052 75.3627 53.1577 75.3627 60.7796" stroke="black" stroke-width="3" stroke-linecap="round"/>
<path d="M25.2543 72.343C25.2543 78.0168 23.9695 83.7282 23.9695 89.6882C23.9695 96.8454 24.2014 99.3245 31.6784 99.3245C36.7476 99.3245 43.9391 99.7432 49.095 100.681C52.2826 101.26 65.2025 104.316 67.6537 101.252C71.3834 96.5896 70.2236 90.3301 72.5075 85.1913C73.4938 82.9721 72.793 79.2453 72.793 76.8399C72.793 71.7382 64.0881 73.6278 60.5871 73.6278C48.8095 73.6278 37.0319 73.6278 25.2543 73.6278" stroke="black" stroke-width="3" stroke-linecap="round"/>
<path d="M121.617 37.6526C111.582 37.6526 100.393 43.2204 99.7745 54.3554C99.4495 60.2048 98.1873 64.5395 99.8458 70.3444C101.093 74.7094 109.03 75.2398 111.338 78.1248C113.428 80.7372 125.432 77.0715 128.041 75.912C133.388 73.5354 134.465 66.667 134.465 61.422C134.465 49.5642 133.16 38.9374 119.047 38.9374" stroke="black" stroke-width="3" stroke-linecap="round"/>
<path d="M165.301 22.2346V87.761" stroke="black" stroke-width="3" stroke-linecap="round"/>
<path d="M167.87 56.925C172.513 56.925 178.019 55.6402 183.288 55.6402" stroke="black" stroke-width="3" stroke-linecap="round"/>
<path d="M237.251 18.3801C231.708 17.7642 227.93 14.167 221.833 14.5256C218.376 14.729 213.083 17.5244 211.269 20.9498C206.854 29.29 205.585 43.2794 215.409 47.6457C223.895 51.4172 236.068 51.8783 240.107 42.7919C243.13 35.9901 243.819 21.0217 235.967 17.0953" stroke="black" stroke-width="3" stroke-linecap="round"/>
<path d="M275.796 1.67731C275.796 11.8608 275.796 22.0443 275.796 32.2277C275.796 35.7102 275.936 54.2855 273.227 55.6402" stroke="black" stroke-width="3" stroke-linecap="round"/>
<path d="M230.827 72.343C233.514 72.6789 232.112 88.9936 232.112 92.2579C232.112 99.3725 238.82 100.609 244.96 100.609C251.539 100.609 258.005 101.548 264.233 101.894C269.866 102.207 277.975 102.515 278.366 95.47C278.709 89.3035 278.366 83.0173 278.366 76.84C278.366 73.8365 279.638 69.7734 275.796 69.7734C273.821 69.7734 268.086 70.7359 266.802 69.131C264.806 66.6351 250.667 68.4886 247.53 68.4886C242.373 68.4886 226.955 69.7734 232.112 69.7734" stroke="black" stroke-width="3" stroke-linecap="round"/>
<path d="M144.101 6.81666C149.064 6.81666 149.127 8.90385 151.168 13.2408C151.168 6.28434 164.016 3.45703 164.016 11.3136C164.016 15.6259 155.499 20.3113 152.738 22.5201C146.334 27.6437 144.896 19.5298 140.247 15.8105C137.156 13.3381 140.564 6.81666 144.101 6.81666Z" stroke="black" stroke-width="3" stroke-linecap="round"/>
</svg>
