<svg width="283" height="96" viewBox="0 0 283 96" fill="none" xmlns="http://www.w3.org/2000/svg">
<path d="M14 18C27.6186 18 41.0968 18.3871 54 20C57.2074 20.4009 58.1057 32.4879 59.2222 35C61.2854 39.642 60 46.899 60 52" stroke="black" stroke-width="3" stroke-linecap="round"/>
<path d="M29 46C27.8864 56.023 30 64.9061 30 75" stroke="black" stroke-width="3" stroke-linecap="round"/>
<path d="M2 75C26.5695 75 50.5377 76 75 76" stroke="black" stroke-width="3" stroke-linecap="round"/>
<path d="M119 11C119 16.6747 111.798 27.1881 108.444 31.5C106.388 34.1444 105.391 37.5115 103.222 40.2222C102.056 41.6798 100.234 48.916 103 42" stroke="black" stroke-width="3" stroke-linecap="round"/>
<path d="M119 15C119.446 19.0149 125.688 26.7075 129 28.7778C133.877 31.826 136.643 35.2861 139 40" stroke="black" stroke-width="3" stroke-linecap="round"/>
<path d="M154 29H181" stroke="black" stroke-width="3" stroke-linecap="round"/>
<path d="M177 2C177 11.3385 178 20.9772 178 30C178 37.9908 180 46.1326 180 54" stroke="black" stroke-width="3" stroke-linecap="round"/>
<path d="M164 65C163.643 62.1462 155.149 63 153 63C147.788 63 144.531 62.7754 140.5 66C137.955 68.0358 138.504 76.5224 139.056 79.5555C140.032 84.9261 142.789 90.4619 148 92.7777C155.289 96.0172 170 91.2698 170 82.5555C170 78.2842 170.169 74.3513 168 70.5555C166.594 68.0944 163.004 66.0081 162 64" stroke="black" stroke-width="3" stroke-linecap="round"/>
<path d="M210 11C215.935 11 221.719 13 227.5 13C230.977 13 239 13.0606 239 17.5C239 26.9141 236 35.8075 236 45" stroke="black" stroke-width="3" stroke-linecap="round"/>
<path d="M254 20C262.003 20 269.895 21 277.889 21C279.581 21 281.932 20.1367 281 22" stroke="black" stroke-width="3" stroke-linecap="round"/>
<path d="M258 36H278" stroke="black" stroke-width="3" stroke-linecap="round"/>
<path d="M279 3C279 18.6396 281 35.6673 281 51" stroke="black" stroke-width="3" stroke-linecap="round"/>
<path d="M265 64C264.401 59.209 242.005 63.351 239.556 66.5C237.118 69.6342 237.727 76.6368 239.222 80C241.937 86.1083 246.604 91.4121 253.5 92.9444C265.829 95.6843 272 88.8999 272 77C272 67.427 270.245 60.1888 259 63" stroke="black" stroke-width="3" stroke-linecap="round"/>
</svg>
