<svg width="60" height="62" viewBox="0 0 60 62" fill="none" xmlns="http://www.w3.org/2000/svg">
<path d="M30 9C27.9365 11.5794 27.6385 15.9015 26.7778 19C25.5865 23.2888 23.2948 27.2919 22 31.5C20.2796 37.0915 18.2647 44.0263 15.7778 49C15.3818 49.792 12.092 55.2682 15.7778 53C19.9144 50.4544 24.6027 48.5038 29.0556 46.5C34.6883 43.9653 40.6222 41.3494 45.5 37.5556C49.1953 34.6815 52.7944 31.4488 57 29.2222C59.8814 27.6968 56.9957 27.6657 55 27.2222C50.0757 26.1279 44.1047 27 39.0556 27C27.3554 27 -6.46495 19.9897 4.00003 25.2222C13.3961 29.9203 20.5333 38.9777 27.7778 46.2222C33.1128 51.5572 38.5961 55.2768 44.5 60C45.8164 61.0531 45.4156 45.0099 44.7778 42.7778C43.1473 37.0708 42 29.4135 42 23.5C42 14.8375 38.633 9.26604 35 2" stroke="black" stroke-width="3" stroke-linecap="round"/>
</svg>
